<?xml version="1.0" encoding="UTF-8"?>
<svg id="Layer_2" data-name="Layer 2" xmlns="http://www.w3.org/2000/svg" xmlns:xlink="http://www.w3.org/1999/xlink" viewBox="0 0 464.89 142.57">
  <defs>
    <style>
      .cls-1 {
        fill: url(#linear-gradient-2);
      }

      .cls-2 {
        fill: #fff;
      }

      .cls-3 {
        fill: url(#linear-gradient);
      }
    </style>
    <linearGradient id="linear-gradient" x1="-15.12" y1="131.69" x2="42.85" y2="-3.08" gradientUnits="userSpaceOnUse">
      <stop offset="0" stop-color="#602de7"/>
      <stop offset="1" stop-color="#f6a4fd"/>
    </linearGradient>
    <linearGradient id="linear-gradient-2" x1="12.64" y1="143.63" x2="70.6" y2="8.86" xlink:href="#linear-gradient"/>
  </defs>
  <g id="Layer_1-2" data-name="Layer 1">
    <g>
      <g>
        <path class="cls-2" d="M102.12,50.35v69.43h-13.92V50.35h13.92Z"/>
        <path class="cls-2" d="M162.31,70.09c4.04,4.14,6.07,9.93,6.07,17.36v32.33h-13.93v-30.44c0-4.38-1.09-7.74-3.28-10.1-2.19-2.35-5.17-3.53-8.96-3.53s-6.88,1.18-9.1,3.53c-2.22,2.35-3.34,5.72-3.34,10.1v30.44h-13.92v-55.11h13.92v6.86c1.86-2.39,4.23-4.26,7.11-5.62s6.05-2.04,9.5-2.04c6.56,0,11.87,2.07,15.91,6.22Z"/>
        <path class="cls-2" d="M197.82,76.11v26.66c0,1.86.45,3.2,1.34,4.03.9.83,2.4,1.24,4.53,1.24h6.47v11.74h-8.75c-11.74,0-17.61-5.7-17.61-17.11v-26.56h-6.57v-11.44h6.57v-13.63h14.02v13.63h12.34v11.44h-12.34Z"/>
        <path class="cls-2" d="M271.03,96.4h-40.29c.33,3.98,1.72,7.1,4.18,9.35,2.45,2.26,5.47,3.38,9.05,3.38,5.17,0,8.85-2.22,11.04-6.66h15.02c-1.59,5.31-4.64,9.67-9.15,13.08-4.51,3.42-10.05,5.12-16.61,5.12-5.3,0-10.06-1.18-14.27-3.53-4.21-2.35-7.49-5.69-9.85-10-2.36-4.31-3.53-9.28-3.53-14.92s1.16-10.71,3.48-15.02c2.32-4.31,5.57-7.63,9.75-9.95,4.18-2.32,8.98-3.48,14.42-3.48s9.93,1.13,14.08,3.38c4.14,2.25,7.36,5.45,9.65,9.6,2.29,4.14,3.43,8.9,3.43,14.27,0,1.99-.13,3.78-.4,5.37ZM257,87.05c-.06-3.58-1.36-6.45-3.88-8.6-2.52-2.16-5.61-3.23-9.25-3.23-3.45,0-6.35,1.04-8.7,3.13-2.36,2.09-3.8,4.99-4.33,8.7h26.16Z"/>
        <path class="cls-2" d="M302.51,66.36c2.88-1.66,6.18-2.49,9.89-2.49v14.62h-3.68c-4.37,0-7.67,1.03-9.89,3.09-2.22,2.06-3.34,5.64-3.34,10.74v27.45h-13.92v-55.11h13.92v8.56c1.79-2.92,4.13-5.21,7.02-6.86Z"/>
        <path class="cls-2" d="M344.73,106.95l13.93-42.28h14.82l-20.39,55.11h-16.91l-20.3-55.11h14.92l13.92,42.28Z"/>
        <path class="cls-2" d="M382.28,55.77c-1.63-1.56-2.44-3.5-2.44-5.82s.81-4.26,2.44-5.82c1.63-1.56,3.67-2.34,6.12-2.34s4.49.78,6.12,2.34c1.62,1.56,2.44,3.5,2.44,5.82s-.81,4.26-2.44,5.82c-1.63,1.56-3.67,2.34-6.12,2.34s-4.49-.78-6.12-2.34ZM395.26,64.67v55.11h-13.92v-55.11h13.92Z"/>
        <path class="cls-2" d="M422.72,50.35v42.97c0,4.71,1.23,8.31,3.68,10.79,2.45,2.49,5.9,3.73,10.34,3.73s7.99-1.24,10.44-3.73c2.45-2.49,3.68-6.08,3.68-10.79v-42.97h14.03v42.87c0,5.9-1.28,10.89-3.83,14.97-2.55,4.08-5.97,7.15-10.24,9.2-4.28,2.06-9.04,3.08-14.28,3.08s-9.87-1.03-14.07-3.08c-4.21-2.05-7.54-5.12-10-9.2-2.45-4.08-3.68-9.07-3.68-14.97v-42.87h13.93Z"/>
      </g>
      <g>
        <circle class="cls-3" cx="31.73" cy="22.78" r="22.78"/>
        <path class="cls-1" d="M41.1,51.94l-6.36,10.03,9.79,35.65-12.8,12.8-12.8-12.8,9.79-35.65-6.36-10.03C7.87,56.41-1.99,70.91.34,86.81l8.16,55.76h46.46l8.16-55.76c2.33-15.9-7.53-30.4-22.01-34.87Z"/>
      </g>
    </g>
  </g>
</svg>